<svg width="54" height="49" viewBox="0 0 54 49" fill="none" xmlns="http://www.w3.org/2000/svg">
  <path
    d="M23.2953 0.953353C26.9667 -1.08265 31.6369 0.255067 33.6886 3.89365L53.3143 37.9545C53.7462 38.9711 53.9352 39.7978 53.9892 40.6567C54.0971 42.6632 53.3953 44.6136 52.0185 46.1145C50.6417 47.6101 48.779 48.493 46.7544 48.6H7.23304C6.39618 48.5492 5.55932 48.3592 4.77645 48.0649C0.862114 46.4864 -1.02757 42.0452 0.565164 38.1953L20.3258 3.86957C21.0007 2.66295 22.0265 1.62221 23.2953 0.953353ZM26.9937 33.136C25.6979 33.136 24.6181 34.2062 24.6181 35.4931C24.6181 36.7746 25.6979 37.8475 26.9937 37.8475C28.2895 37.8475 29.3423 36.7746 29.3423 35.4637C29.3423 34.1821 28.2895 33.136 26.9937 33.136ZM26.9937 16.4441C25.6979 16.4441 24.6181 17.4848 24.6181 18.7717V26.3405C24.6181 27.6247 25.6979 28.6975 26.9937 28.6975C28.2895 28.6975 29.3423 27.6247 29.3423 26.3405V18.7717C29.3423 17.4848 28.2895 16.4441 26.9937 16.4441Z"
    fill="#BFE6BC"/>
</svg>
