<svg width="55" height="55" viewBox="0 0 55 55" fill="none" xmlns="http://www.w3.org/2000/svg">
  <path d="M38.7068 0C47.8549 0 54.0032 6.42098 54.0032 15.9768V38.029C54.0032 47.5849 47.8549 54.0032 38.7041 54.0032H15.2991C6.14826 54.0032 0 47.5849 0 38.029V15.9768C0 6.42098 6.14826 0 15.2991 0H38.7068ZM18.4718 19.9785C14.5998 19.9785 11.4487 23.1296 11.4487 27.0016C11.4487 30.8763 14.5998 34.0274 18.4718 34.0274C21.6364 34.0274 24.2879 31.9105 25.1628 29.0267H30.8655V32.0023C30.8655 33.1201 31.7728 34.0274 32.8906 34.0274C34.0085 34.0274 34.9158 33.1201 34.9158 32.0023V29.0267H38.507V32.0023C38.507 33.1201 39.4142 34.0274 40.5321 34.0274C41.65 34.0274 42.5572 33.1201 42.5572 32.0023V27.0016C42.5572 25.8837 41.65 24.9765 40.5321 24.9765H25.1628C24.2879 22.0954 21.6364 19.9785 18.4718 19.9785ZM18.4721 24.0284C20.1111 24.0284 21.4476 25.3623 21.4476 27.004C21.4476 28.643 20.1111 29.9769 18.4721 29.9769C16.8331 29.9769 15.4965 28.643 15.4965 27.004C15.4965 25.3623 16.8331 24.0284 18.4721 24.0284Z" fill="#BFE6BC"/>
</svg>
