<svg width="54" height="64" viewBox="0 0 54 64" fill="none" xmlns="http://www.w3.org/2000/svg">
  <path d="M28.813 0.316263L49.8966 7.39011C52.2566 8.17817 53.8523 10.3461 53.8651 12.7757L53.9995 33.8696C54.041 40.2644 51.7098 46.4661 47.4406 51.3252C45.4771 53.5555 42.9604 55.4711 39.7465 57.1843L28.4133 63.2427C28.0583 63.4296 27.6682 63.5261 27.2748 63.5293C26.8815 63.5324 26.4881 63.4389 26.1364 63.2552L14.6976 57.3369C11.4485 55.6518 8.90943 53.7642 6.92675 51.5651C2.58723 46.7557 0.176038 40.5821 0.134465 34.1779L7.67958e-05 13.0997C-0.012637 10.6669 1.55432 8.48343 3.90156 7.66422L24.9052 0.338067C26.1524 -0.104244 27.5434 -0.113588 28.813 0.316263ZM38.8953 22.9298C37.9519 22.0234 36.4329 22.0297 35.5023 22.9485L24.8022 33.4955L20.4211 29.2842C19.4778 28.3777 17.962 28.3871 17.0282 29.306C16.0976 30.2249 16.1072 31.7013 17.0506 32.6077L23.1361 38.4637C23.6094 38.9184 24.2234 39.1427 24.8374 39.1366C25.4514 39.1334 26.0622 38.9029 26.5291 38.4419L38.9144 26.2316C39.845 25.3127 39.8354 23.8363 38.8953 22.9298Z" fill="#BFE6BC"/>
</svg>
