<svg xmlns="http://www.w3.org/2000/svg" viewBox="0 0 176 176">
  <defs>
    <style>.cls-1,.cls-3{fill:#005572;}.cls-2{fill:#055773;}.cls-3{fill-rule:evenodd;}</style>
  </defs>
  <g id="icon_art" data-name="icon art">
    <path class="cls-1"
          d="M131.81,173H92.5a3.23,3.23,0,0,1-3.23-3.23V138.84h6.45v27.68h32.86V138.84H135v30.91A3.23,3.23,0,0,1,131.81,173Z"/>
    <path class="cls-2"
          d="M112.15,95.91a18.66,18.66,0,1,1,19-18.66A18.83,18.83,0,0,1,112.15,95.91Zm0-30.86a12.2,12.2,0,1,0,12.5,12.2A12.36,12.36,0,0,0,112.15,65.05Z"/>
    <path class="cls-3" d="M117.87,36.63a5.72,5.72,0,1,1-5.72-5.6,5.66,5.66,0,0,1,5.72,5.6"/>
    <path class="cls-1"
          d="M134.78,11.85H94.65V18.3h40.13a6.43,6.43,0,0,1,6.51,6.32V124a6.43,6.43,0,0,1-6.51,6.32H89.53a6.7,6.7,0,0,1-3.07-.75,14.18,14.18,0,0,1-7.09,2.34,13,13,0,0,0,10.16,4.86h45.25a12.88,12.88,0,0,0,13-12.77V24.62A12.88,12.88,0,0,0,134.78,11.85Z"/>
    <path class="cls-1"
          d="M76.64,126.61H31.39a12.9,12.9,0,0,1-13-12.78V14.45a12.89,12.89,0,0,1,13-12.78H76.64a12.89,12.89,0,0,1,13,12.78v99.38A12.89,12.89,0,0,1,76.64,126.61ZM31.39,8.12a6.43,6.43,0,0,0-6.51,6.33v99.38a6.43,6.43,0,0,0,6.51,6.32H76.64a6.42,6.42,0,0,0,6.5-6.32V14.45a6.43,6.43,0,0,0-6.5-6.33Z"/>
    <path class="cls-1"
          d="M73.67,162.8H34.35a3.23,3.23,0,0,1-3.23-3.23V128.66h6.46v27.68H70.44V128.66H76.9v30.91A3.23,3.23,0,0,1,73.67,162.8Z"/>
    <path class="cls-2"
          d="M54,85.73A18.66,18.66,0,1,1,73,67.07,18.83,18.83,0,0,1,54,85.73Zm0-30.86a12.2,12.2,0,1,0,12.5,12.2A12.37,12.37,0,0,0,54,54.87Z"/>
    <path class="cls-3" d="M59.72,26.45A5.71,5.71,0,1,1,54,20.85a5.66,5.66,0,0,1,5.71,5.6"/>
  </g>
</svg>
