<svg id="Layer_1" data-name="Layer 1" xmlns="http://www.w3.org/2000/svg" viewBox="0 0 176 176">
  <defs>
    <style>
      .cls-1{fill:#fff;}.cls-1,.cls-5{fill-rule:evenodd;}.cls-2{fill:#005572;}.cls-3{fill:#055773;}.cls-4{mask:url(#mask);}.cls-5,.cls-7{fill:#0a5b74;}.cls-6{mask:url(#mask-2-2);}.cls-8{mask:url(#mask-3);}.cls-9{fill:none;}
    </style>
    <mask id="mask" x="78.84" y="41.18" width="18.47" height="19.01" maskUnits="userSpaceOnUse">
      <g id="mask-2">
        <path id="path-1" class="cls-1"
              d="M84,50.68a4.16,4.16,0,0,0,4.12,4.21h0a4.17,4.17,0,0,0,4.12-4.21h0a4.16,4.16,0,0,0-4.12-4.19h0A4.16,4.16,0,0,0,84,50.68Z"/>
      </g>
    </mask>
    <mask id="mask-2-2" x="78.21" y="40.55" width="19.73" height="20.27" maskUnits="userSpaceOnUse">
      <g id="mask-2-3" data-name="mask-2">
        <path id="path-1-2" data-name="path-1" class="cls-1"
              d="M84,50.68a4.16,4.16,0,0,0,4.12,4.21h0a4.17,4.17,0,0,0,4.12-4.21h0a4.16,4.16,0,0,0-4.12-4.19h0A4.16,4.16,0,0,0,84,50.68Z"/>
      </g>
    </mask>
    <mask id="mask-3" x="61.78" y="31.66" width="53" height="121.44" maskUnits="userSpaceOnUse">
      <g id="mask-2-4" data-name="mask-2">
        <path id="path-1-3" data-name="path-1" class="cls-1"
              d="M84,50.68a4.16,4.16,0,0,0,4.12,4.21h0a4.17,4.17,0,0,0,4.12-4.21h0a4.16,4.16,0,0,0-4.12-4.19h0A4.16,4.16,0,0,0,84,50.68Z"/>
      </g>
    </mask>
  </defs>
  <path class="cls-2"
        d="M104.15,125.16H71.27A10.44,10.44,0,0,1,60.8,114.77V41.93A10.44,10.44,0,0,1,71.27,31.54h32.88a10.44,10.44,0,0,1,10.47,10.39v72.84A10.44,10.44,0,0,1,104.15,125.16ZM71.27,38.33a3.65,3.65,0,0,0-3.68,3.6v72.84a3.64,3.64,0,0,0,3.68,3.6h32.88a3.64,3.64,0,0,0,3.68-3.6V41.93a3.65,3.65,0,0,0-3.68-3.6Z"/>
  <path class="cls-2"
        d="M102.28,151.62l-28.58.14a3.39,3.39,0,0,1-3.4-3.38l-.12-23.68,6.79,0,.1,20.3,21.78-.11-.09-20.29,6.78,0,.11,23.68A3.39,3.39,0,0,1,102.28,151.62Z"/>
  <path class="cls-3"
        d="M87.71,94.72A14.22,14.22,0,1,1,102.05,80.5,14.3,14.3,0,0,1,87.71,94.72Zm0-22.62a8.4,8.4,0,1,0,8.52,8.4A8.47,8.47,0,0,0,87.71,72.1Z"/>
  <path id="Fill-7" class="cls-1" d="M91.86,50.73a4.15,4.15,0,1,1-4.15-4.1,4.13,4.13,0,0,1,4.15,4.1"/>
  <g class="cls-4">
    <polygon id="Fill-10" class="cls-5" points="78.84 60.19 97.31 60.19 97.31 41.18 78.84 41.18 78.84 60.19"/>
  </g>
  <g class="cls-6">
    <path class="cls-7" d="M97.94,60.82H78.21V40.55H97.94ZM79.47,59.56H96.68V41.81H79.47Z"/>
  </g>
  <g class="cls-8">
    <path class="cls-2" d="M114.78,152.85l-52.43.25L61.78,31.91l52.43-.25Zm-51.17-1,49.9-.24L113,32.93l-49.9.24Z"/>
  </g>
  <path class="cls-3"
        d="M83.63,140.86a2.42,2.42,0,0,1-2.42-2.42V131a2.42,2.42,0,1,1,4.84,0v7.42A2.42,2.42,0,0,1,83.63,140.86Z"/>
  <path class="cls-3"
        d="M92,140.86a2.42,2.42,0,0,1-2.42-2.42V131a2.43,2.43,0,0,1,4.85,0v7.42A2.42,2.42,0,0,1,92,140.86Z"/>
  <path class="cls-2"
        d="M44,36.17a2.86,2.86,0,0,1-.77-.1,2.91,2.91,0,0,1-2-3.57l3-11.18L33,18.28a2.91,2.91,0,1,1,1.52-5.61l14.06,3.8A2.92,2.92,0,0,1,50.63,20L46.81,34A2.91,2.91,0,0,1,44,36.17Z"/>
  <path class="cls-2"
        d="M17.22,130.1a2.9,2.9,0,0,1-2.51-1.45A81,81,0,0,1,44.57,17.74a2.91,2.91,0,0,1,2.9,5.05A75.12,75.12,0,0,0,19.74,125.73a2.92,2.92,0,0,1-1.06,4A3,3,0,0,1,17.22,130.1Z"/>
  <path class="cls-7"
        d="M142.24,163.43a2.84,2.84,0,0,1-.76-.1l-14.06-3.8a2.9,2.9,0,0,1-2-3.57l3.81-14a2.91,2.91,0,1,1,5.61,1.53l-3,11.18,11.24,3a2.9,2.9,0,0,1-.76,5.71Z"/>
  <path class="cls-2"
        d="M130,158.64a2.91,2.91,0,0,1-1.45-5.43A75.13,75.13,0,0,0,156.26,50.27a2.91,2.91,0,1,1,5-2.92,81,81,0,0,1-29.86,110.91A2.87,2.87,0,0,1,130,158.64Z"/>
  <rect class="cls-9" x="0.5" y="-0.27" width="175" height="176.55"/>
</svg>
