<svg xmlns="http://www.w3.org/2000/svg" viewBox="0 0 176 176">
  <defs>
    <style>.cls-1{fill:none;}.cls-2,.cls-3{fill:#005572;}.cls-2,.cls-4{fill-rule:evenodd;}.cls-4,.cls-5{fill:#fff;}
    </style>
  </defs>
  <g id="icon_art" data-name="icon art">
    <rect class="cls-1" x="-3623.12" y="-3424.59" width="7634" height="4736"/>
    <rect class="cls-1" x="-3623.12" y="-3424.59" width="7634" height="4736"/>
    <g id="Group">
      <g id="phone">
        <path id="Fill-3" class="cls-2" d="M103.58,15.35H118.7a3.4,3.4,0,0,1,0,6.8H103.58a3.4,3.4,0,0,1,0-6.8"/>
        <path class="cls-3"
              d="M152.05,173.85H69.13a10.32,10.32,0,0,1-10.32-10.31V12.46A10.32,10.32,0,0,1,69.13,2.15h82.92a10.32,10.32,0,0,1,10.32,10.31V163.54A10.32,10.32,0,0,1,152.05,173.85ZM69.13,9.15a3.32,3.32,0,0,0-3.32,3.31V163.54a3.32,3.32,0,0,0,3.32,3.31h82.92a3.32,3.32,0,0,0,3.32-3.31V12.46a3.32,3.32,0,0,0-3.32-3.31Z"/>
      </g>
    </g>
    <path id="Stroke-1" class="cls-4"
          d="M54.16,144.23,29.75,126.48a6.42,6.42,0,0,1-1.51-9l39-53.72a6.43,6.43,0,0,1,9-1.34l24.42,17.74a6.43,6.43,0,0,1,1.5,9l-39,53.72A6.45,6.45,0,0,1,54.16,144.23Z"/>
    <path class="cls-3"
          d="M58,149a10,10,0,0,1-5.89-1.93L27.69,129.32a10,10,0,0,1-4-6.47,9.74,9.74,0,0,1,1.73-7.4l39-53.72a9.76,9.76,0,0,1,6.5-3.93,10,10,0,0,1,7.39,1.81l24.42,17.74A10,10,0,0,1,105,91.22L66,144.94a9.76,9.76,0,0,1-6.51,3.93A9.26,9.26,0,0,1,58,149Zm14.42-84.3-.44,0a2.81,2.81,0,0,0-1.88,1.13l-39,53.71a2.81,2.81,0,0,0-.5,2.14,3,3,0,0,0,1.22,2l24.42,17.74h0a3,3,0,0,0,2.24.56,2.76,2.76,0,0,0,1.87-1.13l39-53.71A2.93,2.93,0,0,0,98.63,83L74.22,65.28A3.05,3.05,0,0,0,72.42,64.69Z"/>
    <path class="cls-3"
          d="M38.35,166.13a3.49,3.49,0,0,1-2.06-.67L15.08,150a3.42,3.42,0,0,1-1.4-2.28,3.52,3.52,0,0,1,.62-2.61l12.93-17.79,5.67,4.11L22,146.44l15.56,11.3,10.87-15,5.66,4.12L41.18,164.68A3.47,3.47,0,0,1,38.35,166.13Z"/>
    <path id="Stroke-5" class="cls-3" d="M71.7,110.47a9.44,9.44,0,1,1-2.18-13.06A9.37,9.37,0,0,1,71.7,110.47Z"/>
    <path class="cls-5"
          d="M64.21,117.85A13.16,13.16,0,0,1,51.26,106.9a12.71,12.71,0,0,1,2.26-9.64,13,13,0,0,1,21.1,15.33h0A12.82,12.82,0,0,1,64.21,117.85Zm-.29-18.66a5.57,5.57,0,0,0-5.56,6.52,5.89,5.89,0,0,0,2.37,3.8,5.68,5.68,0,1,0,6.67-9.18A5.89,5.89,0,0,0,63.92,99.19Zm7.78,11.28h0Z"/>
    <path class="cls-3"
          d="M106.08,66.27a1.5,1.5,0,0,1-1.34-.83,1.4,1.4,0,0,1-.15-.49h0A14,14,0,0,0,89,52.92a1.5,1.5,0,0,1-.39-3,17,17,0,0,1,19,14.59,1.5,1.5,0,0,1-.81,1.58A1.64,1.64,0,0,1,106.08,66.27Z"/>
    <path class="cls-3"
          d="M112.93,65.28a2,2,0,0,1-2-1.75A19.63,19.63,0,0,0,89,46.59a2,2,0,0,1-.51-4A23.63,23.63,0,0,1,114.91,63a2,2,0,0,1-1.73,2.24Z"/>
    <path class="cls-3"
          d="M99.22,68.25a2,2,0,0,1-2-1.75,7.27,7.27,0,0,0-8.13-6.27,2,2,0,0,1-.51-4A11.28,11.28,0,0,1,101.21,66a2,2,0,0,1-1.73,2.24Z"/>
    <path class="cls-3"
          d="M106.07,66.77a2,2,0,0,1-2-1.75,13.43,13.43,0,0,0-15-11.61,2,2,0,1,1-.51-4,17.44,17.44,0,0,1,19.49,15.06,2,2,0,0,1-1.73,2.24Z"/>
    <rect class="cls-1" width="176" height="176"/>
  </g>
</svg>
