<svg id="Layer_1" data-name="Layer 1" xmlns="http://www.w3.org/2000/svg" viewBox="0 0 176 176">
  <defs>
    <style>.cls-1{fill:#005572;}.cls-2{fill:#055773;}.cls-3{fill:none;}</style>
  </defs>
  <path class="cls-1"
        d="M157.57,146.74H18.43A14.28,14.28,0,0,1,4.16,132.47V43.53A14.28,14.28,0,0,1,18.43,29.26H157.57a14.28,14.28,0,0,1,14.27,14.27v88.94A14.28,14.28,0,0,1,157.57,146.74ZM18.43,36.11A7.44,7.44,0,0,0,11,43.53v88.94a7.44,7.44,0,0,0,7.43,7.42H157.57a7.44,7.44,0,0,0,7.43-7.42V43.53a7.44,7.44,0,0,0-7.43-7.42Z"/>
  <path class="cls-2"
        d="M62.15,92.17H29.77a3.43,3.43,0,0,1-3.42-3.43V56.36a3.42,3.42,0,0,1,3.42-3.42H62.15a3.43,3.43,0,0,1,3.43,3.42V88.74A3.44,3.44,0,0,1,62.15,92.17Zm-29-6.85H58.73V59.78H33.19Z"/>
  <rect class="cls-3" x="0.5" y="-0.27" width="175" height="176.55"/>
</svg>
